<svg xmlns="http://www.w3.org/2000/svg" width="700" height="310" viewBox="280 100 700 310">
<defs>
<marker id="arrowhead-small" markerWidth="10" markerHeight="10" refX="9" refY="3" orient="auto-start-reverse" markerUnits="strokeWidth">
<polygon points="0 0, 10 3, 0 6" fill="#000000" />
</marker>
<marker id="arrowhead" markerWidth="10" markerHeight="10" refX="9" refY="3" orient="auto-start-reverse" markerUnits="strokeWidth">
<polygon points="0 0, 10 3, 0 6" fill="#000000" />
</marker>
<marker id="arrowhead-medium" markerWidth="14" markerHeight="14" refX="12.6" refY="4.2" orient="auto-start-reverse" markerUnits="strokeWidth">
<polygon points="0 0, 14 4.2, 0 8.4" fill="#000000" />
</marker>
<marker id="arrowhead-large" markerWidth="20" markerHeight="20" refX="18" refY="6" orient="auto-start-reverse" markerUnits="strokeWidth">
<polygon points="0 0, 20 6, 0 12" fill="#000000" />
</marker>
<marker id="crow-foot-small" markerWidth="12" markerHeight="10" refX="9" refY="3" orient="auto-start-reverse" markerUnits="strokeWidth">
<polyline points="0,0 9,3 0,6" fill="none" stroke="#000000" />
<line x1="0" y1="3" x2="9" y2="3" stroke="#000000" />
</marker>
<marker id="crow-foot" markerWidth="12" markerHeight="10" refX="9" refY="3" orient="auto-start-reverse" markerUnits="strokeWidth">
<polyline points="0,0 9,3 0,6" fill="none" stroke="#000000" />
<line x1="0" y1="3" x2="9" y2="3" stroke="#000000" />
</marker>
<marker id="crow-foot-medium" markerWidth="16.8" markerHeight="14" refX="12.6" refY="4.2" orient="auto-start-reverse" markerUnits="strokeWidth">
<polyline points="0,0 12.6,4.2 0,8.4" fill="none" stroke="#000000" />
<line x1="0" y1="4.2" x2="12.6" y2="4.2" stroke="#000000" />
</marker>
<marker id="crow-foot-large" markerWidth="24" markerHeight="20" refX="18" refY="6" orient="auto-start-reverse" markerUnits="strokeWidth">
<polyline points="0,0 18,6 0,12" fill="none" stroke="#000000" />
<line x1="0" y1="6" x2="18" y2="6" stroke="#000000" />
</marker>
</defs>
<rect x="590" y="210" width="120" height="60" fill="#ffffff" stroke="#000000" stroke-width="1" />
<rect x="300" y="120" width="120" height="60" fill="#ffffff" stroke="#000000" stroke-width="1" />
<path d="M 420 150 C 643 150 736 170 699 210" fill="none" stroke="#000000" stroke-width="1" marker-end="url(#arrowhead-large)" />
<line x1="840" y1="150" x2="940" y2="250" stroke="#000000" stroke-width="1" marker-end="url(#arrowhead)" />
<line x1="860" y1="290" x2="960" y2="390" stroke="#000000" stroke-width="1" />
</svg>